<svg aria-hidden="true" style="position: absolute; width: 0; height: 0; overflow: hidden;" version="1.1" xmlns="http://www.w3.org/2000/svg" xmlns:xlink="http://www.w3.org/1999/xlink">
<defs>
  <symbol id="icon-close" viewBox="0 0 32 32">
    <path fill="black" stroke="black" stroke-linejoin="round" stroke-linecap="round" stroke-miterlimit="4" stroke-width="2.4" d="M24 8l-16 16M8 8l16 16"></path>
  </symbol>

  <symbol id="icon-cross-modal" viewBox="0 0 32 32">
    <path fill="#C7CCDC"   d="M31.708 25.708c-0-0-0-0-0-0l-9.708-9.708 9.708-9.708c0-0 0-0 0-0 0.105-0.105 0.18-0.227 0.229-0.357 0.133-0.356 0.057-0.771-0.229-1.057l-4.586-4.586c-0.286-0.286-0.702-0.361-1.057-0.229-0.13 0.048-0.252 0.124-0.357 0.228 0 0-0 0-0 0l-9.708 9.708-9.708-9.708c-0-0-0-0-0-0-0.105-0.104-0.227-0.18-0.357-0.228-0.356-0.133-0.771-0.057-1.057 0.229l-4.586 4.586c-0.286 0.286-0.361 0.702-0.229 1.057 0.049 0.13 0.124 0.252 0.229 0.357 0 0 0 0 0 0l9.708 9.708-9.708 9.708c-0 0-0 0-0 0-0.104 0.105-0.18 0.227-0.229 0.357-0.133 0.355-0.057 0.771 0.229 1.057l4.586 4.586c0.286 0.286 0.702 0.361 1.057 0.229 0.13-0.049 0.252-0.124 0.357-0.229 0-0 0-0 0-0l9.708-9.708 9.708 9.708c0 0 0 0 0 0 0.105 0.105 0.227 0.18 0.357 0.229 0.356 0.133 0.771 0.057 1.057-0.229l4.586-4.586c0.286-0.286 0.362-0.702 0.229-1.057-0.049-0.13-0.124-0.252-0.229-0.357z"></path>
  </symbol>

  <symbol id="icon-heart" viewBox="0 0 32 32">
    <path stroke-linejoin="round" stroke-linecap="round" stroke-miterlimit="4" stroke-width="2.6667" d="M27.787 6.147c-0.681-0.681-1.49-1.222-2.38-1.591s-1.844-0.559-2.807-0.559c-0.963 0-1.917 0.19-2.807 0.559s-1.698 0.909-2.38 1.591l-1.413 1.413-1.413-1.413c-1.376-1.376-3.241-2.148-5.187-2.148s-3.811 0.773-5.187 2.148c-1.376 1.376-2.148 3.241-2.148 5.187s0.773 3.811 2.148 5.187l11.787 11.787 11.787-11.787c0.681-0.681 1.222-1.49 1.591-2.38s0.559-1.844 0.559-2.807c0-0.963-0.19-1.917-0.559-2.807s-0.909-1.699-1.591-2.38z"></path>
  </symbol>

  <symbol id="icon-burger-menu" viewBox="0 0 32 32">
    <path fill="#3470ff" d="M28.667 10h-25.333c-0.733 0-1.333-0.6-1.333-1.333v-1.333c0-0.733 0.6-1.333 1.333-1.333h25.333c0.733 0 1.333 0.6 1.333 1.333v1.333c0 0.733-0.6 1.333-1.333 1.333z"></path>
    <path fill="#3470ff" d="M28.667 18h-25.333c-0.733 0-1.333-0.6-1.333-1.333v-1.333c0-0.733 0.6-1.333 1.333-1.333h25.333c0.733 0 1.333 0.6 1.333 1.333v1.333c0 0.733-0.6 1.333-1.333 1.333z"></path>
    <path fill="#3470ff" d="M28.667 26h-25.333c-0.733 0-1.333-0.6-1.333-1.333v-1.333c0-0.733 0.6-1.333 1.333-1.333h25.333c0.733 0 1.333 0.6 1.333 1.333v1.333c0 0.733-0.6 1.333-1.333 1.333z"></path>
  </symbol>

  <symbol id="icon-arrow-back" viewBox="0 0 32 32">
    <path fill="#3470ff" style="fill: var(--color1, #3470ff)" d="M13.563 8.117c-0.391-0.391-1.024-0.391-1.414 0l-7.173 7.172c-0.024 0.024-0.048 0.050-0.069 0.077-0.007 0.008-0.013 0.017-0.019 0.026-0.013 0.018-0.026 0.034-0.039 0.053-0.009 0.013-0.016 0.027-0.024 0.040-0.009 0.014-0.018 0.029-0.026 0.044s-0.015 0.030-0.022 0.046c-0.007 0.014-0.014 0.028-0.020 0.043-0.007 0.016-0.012 0.033-0.018 0.049-0.005 0.014-0.011 0.029-0.015 0.043-0.006 0.018-0.009 0.036-0.014 0.054-0.003 0.014-0.007 0.027-0.010 0.041-0.005 0.024-0.008 0.047-0.011 0.071-0.001 0.009-0.003 0.017-0.004 0.026-0.007 0.067-0.007 0.134 0 0.201 0.001 0.004 0.001 0.008 0.002 0.011 0.003 0.029 0.008 0.058 0.013 0.086 0.002 0.008 0.004 0.016 0.006 0.024 0.006 0.024 0.011 0.047 0.018 0.071 0.003 0.008 0.006 0.016 0.009 0.025 0.008 0.023 0.016 0.046 0.025 0.068 0.003 0.007 0.006 0.013 0.009 0.020 0.011 0.023 0.021 0.046 0.033 0.069 0.003 0.004 0.006 0.009 0.008 0.013 0.013 0.024 0.027 0.047 0.043 0.071 0.001 0.002 0.003 0.004 0.004 0.006 0.034 0.051 0.074 0.099 0.118 0.143l7.176 7.176c0.195 0.195 0.451 0.293 0.707 0.293s0.512-0.098 0.707-0.293c0.391-0.391 0.391-1.024 0-1.414l-5.469-5.469h18.226c0.552 0 1-0.448 1-1s-0.448-1-1-1h-18.226l5.468-5.469c0.391-0.39 0.391-1.023 0-1.414z"></path>
  </symbol>
</defs>
</svg>