<svg aria-hidden="true" style="position: absolute; width: 0; height: 0; overflow: hidden;" version="1.1" xmlns="http://www.w3.org/2000/svg" xmlns:xlink="http://www.w3.org/1999/xlink">
<defs>

<symbol id="icon-close" viewBox="0 0 32 32">
            <path fill="black" stroke="black" stroke-linejoin="round" stroke-linecap="round" stroke-miterlimit="4" stroke-width="2.4" d="M24 8l-16 16M8 8l16 16"></path>
</symbol>

<symbol id="icon-cross-modal" viewBox="0 0 32 32">
            <path fill="#C7CCDC"   d="M31.708 25.708c-0-0-0-0-0-0l-9.708-9.708 9.708-9.708c0-0 0-0 0-0 0.105-0.105 0.18-0.227 0.229-0.357 0.133-0.356 0.057-0.771-0.229-1.057l-4.586-4.586c-0.286-0.286-0.702-0.361-1.057-0.229-0.13 0.048-0.252 0.124-0.357 0.228 0 0-0 0-0 0l-9.708 9.708-9.708-9.708c-0-0-0-0-0-0-0.105-0.104-0.227-0.18-0.357-0.228-0.356-0.133-0.771-0.057-1.057 0.229l-4.586 4.586c-0.286 0.286-0.361 0.702-0.229 1.057 0.049 0.13 0.124 0.252 0.229 0.357 0 0 0 0 0 0l9.708 9.708-9.708 9.708c-0 0-0 0-0 0-0.104 0.105-0.18 0.227-0.229 0.357-0.133 0.355-0.057 0.771 0.229 1.057l4.586 4.586c0.286 0.286 0.702 0.361 1.057 0.229 0.13-0.049 0.252-0.124 0.357-0.229 0-0 0-0 0-0l9.708-9.708 9.708 9.708c0 0 0 0 0 0 0.105 0.105 0.227 0.18 0.357 0.229 0.356 0.133 0.771 0.057 1.057-0.229l4.586-4.586c0.286-0.286 0.362-0.702 0.229-1.057-0.049-0.13-0.124-0.252-0.229-0.357z"></path>
</symbol>
<symbol id="heart" viewBox="0 0 18 18">
            <path
                d="M15.63 3.4575C15.2469 3.07425 14.7921 2.77023 14.2915 2.56281C13.7909 2.35539 13.2543 2.24863 12.7125 2.24863C12.1706 2.24863 11.634 2.35539 11.1334 2.56281C10.6329 2.77023 10.178 3.07425 9.79497 3.4575L8.99997 4.2525L8.20497 3.4575C7.4312 2.68373 6.38174 2.24903 5.28747 2.24903C4.19319 2.24903 3.14374 2.68373 2.36997 3.4575C1.5962 4.23127 1.1615 5.28072 1.1615 6.375C1.1615 7.46927 1.5962 8.51873 2.36997 9.2925L3.16497 10.0875L8.99997 15.9225L14.835 10.0875L15.63 9.2925C16.0132 8.90943 16.3172 8.45461 16.5247 7.95402C16.7321 7.45342 16.8388 6.91687 16.8388 6.375C16.8388 5.83313 16.7321 5.29658 16.5247 4.79598C16.3172 4.29539 16.0132 3.84057 15.63 3.4575Z"
                stroke-opacity="0.8" stroke-width="1.5" stroke-linecap="round" stroke-linejoin="round" />
        </symbol>
</defs>
</svg>